<svg xmlns="http://www.w3.org/2000/svg" xmlns:xlink="http://www.w3.org/1999/xlink" width="64"
  height="64" id="traffic">
  <defs>
    <path id="a" d="M.06 64V.04H64V64z"></path>
  </defs>
  <g fill="none" fill-rule="evenodd">
    <mask id="b" fill="#fff">
      <use xlink:href="#a"></use>
    </mask>
    <path fill="#76ABC4"
      d="M64 32c0 17.673-14.327 32-32 32C14.327 64 0 49.673 0 32 0 14.327 14.327 0 32 0c17.673 0 32 14.327 32 32"
      mask="url(#b)"></path>
    <path fill="#638DA0"
      d="M41 57H23a3 3 0 0 1-3-3V14v38a3 3 0 0 0 3 3h18a3 3 0 0 0 3-3v2a3 3 0 0 1-3 3"></path>
    <path fill="#4C5665"
      d="M44 52a3 3 0 0 1-3 3H23a3 3 0 0 1-3-3V12a3 3 0 0 1 3-3h18a3 3 0 0 1 3 3v40"></path>
    <path fill="#414A55"
      d="M32 39a5 5 0 1 1 0-10 5 5 0 0 1 0 10M32 26a5 5 0 1 1 .001-10.001A5 5 0 0 1 32 26M32 52a5 5 0 1 1 0-10 5 5 0 0 1 0 10"></path>
    <path fill="#F0CB83" d="M37 32a5 5 0 1 1-10 0 5 5 0 0 1 10 0"></path>
    <path fill="#B85756" d="M37 19a5 5 0 1 1-10 0 5 5 0 0 1 10 0"></path>
    <path fill="#73BBA3" d="M37 45a5 5 0 1 1-10 0 5 5 0 0 1 10 0"></path>
  </g>
</svg>